<mxfile host="app.diagrams.net" agent="Mozilla/5.0 (Windows NT 10.0; Win64; x64) AppleWebKit/537.36 (KHTML, like Gecko) Chrome/138.0.0.0 Safari/537.36" version="27.2.0">
  <diagram name="PÃ¡gina-1" id="wz_fZi8JQRfxLl_Bvb5L">
    <mxGraphModel dx="1426" dy="791" grid="1" gridSize="10" guides="1" tooltips="1" connect="1" arrows="1" fold="1" page="1" pageScale="1" pageWidth="827" pageHeight="1169" math="0" shadow="0">
      <root>
        <mxCell id="0" />
        <mxCell id="1" parent="0" />
        <mxCell id="9_u5ZcmCHQjD2-rMv_rn-1" value="Usuario&lt;div&gt;&lt;br&gt;&lt;/div&gt;" style="swimlane;fontStyle=1;align=center;verticalAlign=top;childLayout=stackLayout;horizontal=1;startSize=26;horizontalStack=0;resizeParent=1;resizeParentMax=0;resizeLast=0;collapsible=1;marginBottom=0;whiteSpace=wrap;html=1;" parent="1" vertex="1">
          <mxGeometry x="319" y="390" width="160" height="250" as="geometry" />
        </mxCell>
        <mxCell id="9_u5ZcmCHQjD2-rMv_rn-2" value="&lt;div&gt;- nombre: String&amp;nbsp; &amp;nbsp; &amp;nbsp; &amp;nbsp; &amp;nbsp;&lt;/div&gt;&lt;div&gt;- correo: String&amp;nbsp; &amp;nbsp; &amp;nbsp; &amp;nbsp; &amp;nbsp;&lt;/div&gt;&lt;div&gt;- contrasena: String&lt;/div&gt;&lt;div&gt;- edad: int&lt;/div&gt;&lt;div&gt;- ciudad: String&lt;/div&gt;" style="text;strokeColor=none;fillColor=none;align=left;verticalAlign=top;spacingLeft=4;spacingRight=4;overflow=hidden;rotatable=0;points=[[0,0.5],[1,0.5]];portConstraint=eastwest;whiteSpace=wrap;html=1;" parent="9_u5ZcmCHQjD2-rMv_rn-1" vertex="1">
          <mxGeometry y="26" width="160" height="84" as="geometry" />
        </mxCell>
        <mxCell id="9_u5ZcmCHQjD2-rMv_rn-3" value="" style="line;strokeWidth=1;fillColor=none;align=left;verticalAlign=middle;spacingTop=-1;spacingLeft=3;spacingRight=3;rotatable=0;labelPosition=right;points=[];portConstraint=eastwest;strokeColor=inherit;" parent="9_u5ZcmCHQjD2-rMv_rn-1" vertex="1">
          <mxGeometry y="110" width="160" height="8" as="geometry" />
        </mxCell>
        <mxCell id="9_u5ZcmCHQjD2-rMv_rn-4" value="&lt;div&gt;+ getCorreo(): String&lt;/div&gt;&lt;div&gt;+ getContrasena(): String&lt;/div&gt;&lt;div&gt;+ setNombre(String): void&lt;/div&gt;&lt;div&gt;+ setEdad(int): void&lt;/div&gt;&lt;div&gt;+ setCiudad(String): void&lt;/div&gt;&lt;div&gt;+ setContrasena(String): void&lt;/div&gt;&lt;div&gt;+ toString(): String&lt;/div&gt;" style="text;strokeColor=none;fillColor=none;align=left;verticalAlign=top;spacingLeft=4;spacingRight=4;overflow=hidden;rotatable=0;points=[[0,0.5],[1,0.5]];portConstraint=eastwest;whiteSpace=wrap;html=1;" parent="9_u5ZcmCHQjD2-rMv_rn-1" vertex="1">
          <mxGeometry y="118" width="160" height="132" as="geometry" />
        </mxCell>
        <mxCell id="9_u5ZcmCHQjD2-rMv_rn-5" value="M&lt;span style=&quot;background-color: transparent; color: light-dark(rgb(0, 0, 0), rgb(255, 255, 255));&quot;&gt;etodos&lt;/span&gt;" style="swimlane;fontStyle=1;align=center;verticalAlign=top;childLayout=stackLayout;horizontal=1;startSize=26;horizontalStack=0;resizeParent=1;resizeParentMax=0;resizeLast=0;collapsible=1;marginBottom=0;whiteSpace=wrap;html=1;" parent="1" vertex="1">
          <mxGeometry x="579" y="120" width="160" height="180" as="geometry" />
        </mxCell>
        <mxCell id="9_u5ZcmCHQjD2-rMv_rn-6" value="&lt;div&gt;- listaUsuarios: List&amp;lt;Usuario&amp;gt;&lt;/div&gt;&lt;div&gt;- usuarioActual: Usuario&lt;/div&gt;&lt;div&gt;- sc: Scanner&lt;/div&gt;" style="text;strokeColor=none;fillColor=none;align=left;verticalAlign=top;spacingLeft=4;spacingRight=4;overflow=hidden;rotatable=0;points=[[0,0.5],[1,0.5]];portConstraint=eastwest;whiteSpace=wrap;html=1;" parent="9_u5ZcmCHQjD2-rMv_rn-5" vertex="1">
          <mxGeometry y="26" width="160" height="64" as="geometry" />
        </mxCell>
        <mxCell id="9_u5ZcmCHQjD2-rMv_rn-7" value="" style="line;strokeWidth=1;fillColor=none;align=left;verticalAlign=middle;spacingTop=-1;spacingLeft=3;spacingRight=3;rotatable=0;labelPosition=right;points=[];portConstraint=eastwest;strokeColor=inherit;" parent="9_u5ZcmCHQjD2-rMv_rn-5" vertex="1">
          <mxGeometry y="90" width="160" height="20" as="geometry" />
        </mxCell>
        <mxCell id="9_u5ZcmCHQjD2-rMv_rn-8" value="&lt;div&gt;+ registrarUsuario(): void&lt;/div&gt;&lt;div&gt;+ iniciarSesion(): boolean&lt;/div&gt;&lt;div&gt;+ actualizarPerfil(): void&lt;/div&gt;&lt;div&gt;+ verPerfil(): void&lt;/div&gt;" style="text;strokeColor=none;fillColor=none;align=left;verticalAlign=top;spacingLeft=4;spacingRight=4;overflow=hidden;rotatable=0;points=[[0,0.5],[1,0.5]];portConstraint=eastwest;whiteSpace=wrap;html=1;" parent="9_u5ZcmCHQjD2-rMv_rn-5" vertex="1">
          <mxGeometry y="110" width="160" height="70" as="geometry" />
        </mxCell>
        <mxCell id="9_u5ZcmCHQjD2-rMv_rn-9" value="Menu&lt;div&gt;&lt;br&gt;&lt;/div&gt;" style="swimlane;fontStyle=1;align=center;verticalAlign=top;childLayout=stackLayout;horizontal=1;startSize=26;horizontalStack=0;resizeParent=1;resizeParentMax=0;resizeLast=0;collapsible=1;marginBottom=0;whiteSpace=wrap;html=1;" parent="1" vertex="1">
          <mxGeometry x="89" y="120" width="160" height="104" as="geometry" />
        </mxCell>
        <mxCell id="9_u5ZcmCHQjD2-rMv_rn-10" value="&lt;div&gt;- sc: Scanner&lt;/div&gt;- opcion: int" style="text;strokeColor=none;fillColor=none;align=left;verticalAlign=top;spacingLeft=4;spacingRight=4;overflow=hidden;rotatable=0;points=[[0,0.5],[1,0.5]];portConstraint=eastwest;whiteSpace=wrap;html=1;" parent="9_u5ZcmCHQjD2-rMv_rn-9" vertex="1">
          <mxGeometry y="26" width="160" height="44" as="geometry" />
        </mxCell>
        <mxCell id="9_u5ZcmCHQjD2-rMv_rn-11" value="" style="line;strokeWidth=1;fillColor=none;align=left;verticalAlign=middle;spacingTop=-1;spacingLeft=3;spacingRight=3;rotatable=0;labelPosition=right;points=[];portConstraint=eastwest;strokeColor=inherit;" parent="9_u5ZcmCHQjD2-rMv_rn-9" vertex="1">
          <mxGeometry y="70" width="160" height="8" as="geometry" />
        </mxCell>
        <mxCell id="9_u5ZcmCHQjD2-rMv_rn-12" value="+ main(String[]): void" style="text;strokeColor=none;fillColor=none;align=left;verticalAlign=top;spacingLeft=4;spacingRight=4;overflow=hidden;rotatable=0;points=[[0,0.5],[1,0.5]];portConstraint=eastwest;whiteSpace=wrap;html=1;" parent="9_u5ZcmCHQjD2-rMv_rn-9" vertex="1">
          <mxGeometry y="78" width="160" height="26" as="geometry" />
        </mxCell>
        <mxCell id="9_u5ZcmCHQjD2-rMv_rn-13" value="&lt;div&gt;Producto&lt;/div&gt;" style="swimlane;fontStyle=1;align=center;verticalAlign=top;childLayout=stackLayout;horizontal=1;startSize=26;horizontalStack=0;resizeParent=1;resizeParentMax=0;resizeLast=0;collapsible=1;marginBottom=0;whiteSpace=wrap;html=1;" parent="1" vertex="1">
          <mxGeometry x="334" y="1190" width="160" height="250" as="geometry" />
        </mxCell>
        <mxCell id="9_u5ZcmCHQjD2-rMv_rn-14" value="&lt;div&gt;- codigo: String&lt;/div&gt;&lt;div&gt;- nombre: String&lt;/div&gt;&lt;div&gt;- precio: double&lt;/div&gt;&lt;div&gt;- cantidad: int&lt;/div&gt;" style="text;strokeColor=none;fillColor=none;align=left;verticalAlign=top;spacingLeft=4;spacingRight=4;overflow=hidden;rotatable=0;points=[[0,0.5],[1,0.5]];portConstraint=eastwest;whiteSpace=wrap;html=1;" parent="9_u5ZcmCHQjD2-rMv_rn-13" vertex="1">
          <mxGeometry y="26" width="160" height="84" as="geometry" />
        </mxCell>
        <mxCell id="9_u5ZcmCHQjD2-rMv_rn-15" value="" style="line;strokeWidth=1;fillColor=none;align=left;verticalAlign=middle;spacingTop=-1;spacingLeft=3;spacingRight=3;rotatable=0;labelPosition=right;points=[];portConstraint=eastwest;strokeColor=inherit;" parent="9_u5ZcmCHQjD2-rMv_rn-13" vertex="1">
          <mxGeometry y="110" width="160" height="8" as="geometry" />
        </mxCell>
        <mxCell id="9_u5ZcmCHQjD2-rMv_rn-16" value="&lt;div&gt;+ Producto(String, String, double)&lt;/div&gt;&lt;div&gt;+ getCodigo(): String&lt;/div&gt;&lt;div&gt;+ getNombre(): String&lt;/div&gt;&lt;div&gt;+ getPrecio(): double&lt;/div&gt;&lt;div&gt;+ getCantidad(): int&lt;/div&gt;&lt;div&gt;+ setCantidad(int): void&lt;/div&gt;&lt;div&gt;+ toString(): String&lt;/div&gt;" style="text;strokeColor=none;fillColor=none;align=left;verticalAlign=top;spacingLeft=4;spacingRight=4;overflow=hidden;rotatable=0;points=[[0,0.5],[1,0.5]];portConstraint=eastwest;whiteSpace=wrap;html=1;" parent="9_u5ZcmCHQjD2-rMv_rn-13" vertex="1">
          <mxGeometry y="118" width="160" height="132" as="geometry" />
        </mxCell>
        <mxCell id="9_u5ZcmCHQjD2-rMv_rn-17" value="Inventario" style="swimlane;fontStyle=1;align=center;verticalAlign=top;childLayout=stackLayout;horizontal=1;startSize=26;horizontalStack=0;resizeParent=1;resizeParentMax=0;resizeLast=0;collapsible=1;marginBottom=0;whiteSpace=wrap;html=1;" parent="1" vertex="1">
          <mxGeometry x="560" y="880" width="160" height="180" as="geometry" />
        </mxCell>
        <mxCell id="9_u5ZcmCHQjD2-rMv_rn-18" value="&lt;div&gt;- lista: ArrayList&amp;lt;Producto&amp;gt;&lt;/div&gt;&lt;div&gt;- sc: Scanner&lt;/div&gt;" style="text;strokeColor=none;fillColor=none;align=left;verticalAlign=top;spacingLeft=4;spacingRight=4;overflow=hidden;rotatable=0;points=[[0,0.5],[1,0.5]];portConstraint=eastwest;whiteSpace=wrap;html=1;" parent="9_u5ZcmCHQjD2-rMv_rn-17" vertex="1">
          <mxGeometry y="26" width="160" height="44" as="geometry" />
        </mxCell>
        <mxCell id="9_u5ZcmCHQjD2-rMv_rn-19" value="" style="line;strokeWidth=1;fillColor=none;align=left;verticalAlign=middle;spacingTop=-1;spacingLeft=3;spacingRight=3;rotatable=0;labelPosition=right;points=[];portConstraint=eastwest;strokeColor=inherit;" parent="9_u5ZcmCHQjD2-rMv_rn-17" vertex="1">
          <mxGeometry y="70" width="160" height="20" as="geometry" />
        </mxCell>
        <mxCell id="9_u5ZcmCHQjD2-rMv_rn-20" value="&lt;div&gt;+ agregarProducto(): void&lt;/div&gt;&lt;div&gt;+ actualizarStock(): void&lt;/div&gt;&lt;div&gt;+ listarBajoStock(): void&lt;/div&gt;&lt;div&gt;+ buscarProducto(): void&lt;/div&gt;&lt;div&gt;+ mostrarProductos(): void&lt;/div&gt;" style="text;strokeColor=none;fillColor=none;align=left;verticalAlign=top;spacingLeft=4;spacingRight=4;overflow=hidden;rotatable=0;points=[[0,0.5],[1,0.5]];portConstraint=eastwest;whiteSpace=wrap;html=1;" parent="9_u5ZcmCHQjD2-rMv_rn-17" vertex="1">
          <mxGeometry y="90" width="160" height="90" as="geometry" />
        </mxCell>
        <mxCell id="9_u5ZcmCHQjD2-rMv_rn-21" value="Menu&lt;div&gt;&lt;br&gt;&lt;/div&gt;" style="swimlane;fontStyle=1;align=center;verticalAlign=top;childLayout=stackLayout;horizontal=1;startSize=26;horizontalStack=0;resizeParent=1;resizeParentMax=0;resizeLast=0;collapsible=1;marginBottom=0;whiteSpace=wrap;html=1;" parent="1" vertex="1">
          <mxGeometry x="80" y="880" width="160" height="104" as="geometry" />
        </mxCell>
        <mxCell id="9_u5ZcmCHQjD2-rMv_rn-22" value="&lt;div&gt;- sc: Scanner&lt;/div&gt;- opcion: int" style="text;strokeColor=none;fillColor=none;align=left;verticalAlign=top;spacingLeft=4;spacingRight=4;overflow=hidden;rotatable=0;points=[[0,0.5],[1,0.5]];portConstraint=eastwest;whiteSpace=wrap;html=1;" parent="9_u5ZcmCHQjD2-rMv_rn-21" vertex="1">
          <mxGeometry y="26" width="160" height="44" as="geometry" />
        </mxCell>
        <mxCell id="9_u5ZcmCHQjD2-rMv_rn-23" value="" style="line;strokeWidth=1;fillColor=none;align=left;verticalAlign=middle;spacingTop=-1;spacingLeft=3;spacingRight=3;rotatable=0;labelPosition=right;points=[];portConstraint=eastwest;strokeColor=inherit;" parent="9_u5ZcmCHQjD2-rMv_rn-21" vertex="1">
          <mxGeometry y="70" width="160" height="8" as="geometry" />
        </mxCell>
        <mxCell id="9_u5ZcmCHQjD2-rMv_rn-24" value="+ main(String[]): void" style="text;strokeColor=none;fillColor=none;align=left;verticalAlign=top;spacingLeft=4;spacingRight=4;overflow=hidden;rotatable=0;points=[[0,0.5],[1,0.5]];portConstraint=eastwest;whiteSpace=wrap;html=1;" parent="9_u5ZcmCHQjD2-rMv_rn-21" vertex="1">
          <mxGeometry y="78" width="160" height="26" as="geometry" />
        </mxCell>
        <mxCell id="9_u5ZcmCHQjD2-rMv_rn-25" value="" style="endArrow=none;html=1;rounded=0;" parent="1" edge="1">
          <mxGeometry width="50" height="50" relative="1" as="geometry">
            <mxPoint x="4" y="760" as="sourcePoint" />
            <mxPoint x="824" y="760" as="targetPoint" />
          </mxGeometry>
        </mxCell>
        <mxCell id="9_u5ZcmCHQjD2-rMv_rn-26" value="HISTORIA DE USUARIO 1&lt;div&gt;&lt;br&gt;&lt;/div&gt;" style="text;html=1;align=center;verticalAlign=middle;whiteSpace=wrap;rounded=0;" parent="1" vertex="1">
          <mxGeometry x="362" y="30" width="76" height="30" as="geometry" />
        </mxCell>
        <mxCell id="9_u5ZcmCHQjD2-rMv_rn-27" value="HISTORIA DE USUARIO 2" style="text;html=1;align=center;verticalAlign=middle;whiteSpace=wrap;rounded=0;" parent="1" vertex="1">
          <mxGeometry x="350" y="790" width="76" height="30" as="geometry" />
        </mxCell>
        <mxCell id="7At39c5_C46uSmzlEIU8-1" value="dependencia" style="endArrow=open;endSize=12;dashed=1;html=1;rounded=0;exitX=0.975;exitY=0.115;exitDx=0;exitDy=0;exitPerimeter=0;entryX=-0.019;entryY=0.067;entryDx=0;entryDy=0;entryPerimeter=0;" edge="1" parent="1" source="9_u5ZcmCHQjD2-rMv_rn-9" target="9_u5ZcmCHQjD2-rMv_rn-5">
          <mxGeometry width="160" relative="1" as="geometry">
            <mxPoint x="329" y="171.5" as="sourcePoint" />
            <mxPoint x="489" y="171.5" as="targetPoint" />
          </mxGeometry>
        </mxCell>
        <mxCell id="7At39c5_C46uSmzlEIU8-3" value="" style="endArrow=none;html=1;rounded=0;entryX=0.456;entryY=1.115;entryDx=0;entryDy=0;entryPerimeter=0;exitX=0.5;exitY=0;exitDx=0;exitDy=0;" edge="1" parent="1" source="9_u5ZcmCHQjD2-rMv_rn-1" target="9_u5ZcmCHQjD2-rMv_rn-12">
          <mxGeometry width="50" height="50" relative="1" as="geometry">
            <mxPoint x="429" y="450" as="sourcePoint" />
            <mxPoint x="479" y="400" as="targetPoint" />
          </mxGeometry>
        </mxCell>
        <mxCell id="7At39c5_C46uSmzlEIU8-4" value="" style="endArrow=none;html=1;rounded=0;entryX=0.556;entryY=1;entryDx=0;entryDy=0;entryPerimeter=0;exitX=0.5;exitY=0;exitDx=0;exitDy=0;" edge="1" parent="1" source="9_u5ZcmCHQjD2-rMv_rn-1" target="9_u5ZcmCHQjD2-rMv_rn-8">
          <mxGeometry width="50" height="50" relative="1" as="geometry">
            <mxPoint x="466" y="473" as="sourcePoint" />
            <mxPoint x="229" y="310" as="targetPoint" />
            <Array as="points" />
          </mxGeometry>
        </mxCell>
        <mxCell id="7At39c5_C46uSmzlEIU8-5" value="dependencia" style="endArrow=open;endSize=12;dashed=1;html=1;rounded=0;exitX=0.975;exitY=0.115;exitDx=0;exitDy=0;exitPerimeter=0;entryX=-0.006;entryY=0.056;entryDx=0;entryDy=0;entryPerimeter=0;" edge="1" parent="1" target="9_u5ZcmCHQjD2-rMv_rn-17">
          <mxGeometry width="160" relative="1" as="geometry">
            <mxPoint x="240" y="890" as="sourcePoint" />
            <mxPoint x="571" y="890" as="targetPoint" />
          </mxGeometry>
        </mxCell>
        <mxCell id="7At39c5_C46uSmzlEIU8-6" value="" style="endArrow=none;html=1;rounded=0;entryX=0.531;entryY=1.056;entryDx=0;entryDy=0;entryPerimeter=0;exitX=0.45;exitY=0.004;exitDx=0;exitDy=0;exitPerimeter=0;" edge="1" parent="1" source="9_u5ZcmCHQjD2-rMv_rn-13" target="9_u5ZcmCHQjD2-rMv_rn-20">
          <mxGeometry width="50" height="50" relative="1" as="geometry">
            <mxPoint x="400" y="1160" as="sourcePoint" />
            <mxPoint x="669" y="1070" as="targetPoint" />
            <Array as="points" />
          </mxGeometry>
        </mxCell>
        <mxCell id="7At39c5_C46uSmzlEIU8-7" value="" style="endArrow=none;html=1;rounded=0;entryX=0.425;entryY=1.192;entryDx=0;entryDy=0;entryPerimeter=0;exitX=0.5;exitY=0;exitDx=0;exitDy=0;" edge="1" parent="1" source="9_u5ZcmCHQjD2-rMv_rn-13" target="9_u5ZcmCHQjD2-rMv_rn-24">
          <mxGeometry width="50" height="50" relative="1" as="geometry">
            <mxPoint x="560" y="1236" as="sourcePoint" />
            <mxPoint x="799" y="1110" as="targetPoint" />
            <Array as="points" />
          </mxGeometry>
        </mxCell>
      </root>
    </mxGraphModel>
  </diagram>
</mxfile>
